<svg width="26" height="16" viewBox="0 0 26 16" fill="none" xmlns="http://www.w3.org/2000/svg">
  <rect width="100%" height="100%" rx="2" fill="#fff"/>
  <path d="M10.112 4.261 6.97 11.757H4.92L3.374 5.774c-.094-.368-.175-.503-.461-.658-.466-.253-1.236-.49-1.913-.638l.046-.217h3.3a.904.904 0 0 1 .894.764l.817 4.338 2.018-5.102h2.037Zm8.033 5.05c.008-1.98-2.736-2.089-2.717-2.973.006-.269.262-.555.822-.628a3.66 3.66 0 0 1 1.913.336l.34-1.59a5.206 5.206 0 0 0-1.814-.333c-1.917 0-3.266 1.02-3.278 2.479-.012 1.079.963 1.68 1.698 2.04.756.367 1.01.603 1.006.931-.005.504-.602.725-1.16.734-.975.015-1.54-.263-1.992-.473l-.351 1.642c.453.208 1.289.39 2.156.398 2.037 0 3.37-1.006 3.377-2.564Zm5.061 2.446H25l-1.565-7.496h-1.656a.883.883 0 0 0-.826.55l-2.909 6.946h2.036l.405-1.12h2.488l.233 1.12Zm-2.163-2.656 1.02-2.815.588 2.815h-1.608Zm-8.16-4.84-1.603 7.496H9.34l1.605-7.496h1.938Z" fill="#1434CB"/>
</svg>
