<?xml version="1.0" standalone="no"?><!DOCTYPE svg PUBLIC "-//W3C//DTD SVG 1.1//EN" "http://www.w3.org/Graphics/SVG/1.1/DTD/svg11.dtd"><svg t="1698827669570" class="icon" viewBox="0 0 1024 1024" version="1.1" xmlns="http://www.w3.org/2000/svg" p-id="18149" width="64" height="64" xmlns:xlink="http://www.w3.org/1999/xlink"><path d="M160 192C107.36 192 64 235.36 64 288v448c0 52.64 43.36 96 96 96h704c52.64 0 96-43.36 96-96V288c0-52.64-43.36-96-96-96z m0 64h704c18.112 0 32 13.888 32 32v448c0 18.112-13.888 32-32 32H160c-18.112 0-32-13.888-32-32V288c0-18.112 13.888-32 32-32z m66.016 168L160 600h40l12.992-40H288l12.992 40h75.008v-132l48 132h35.008l48.992-128v128h35.008v-176h-57.024l-43.968 119.008-44.032-119.008H336v167.008L273.984 424z m364.992 0v176h140.992l44-56.992 44 56.992H864L797.984 512 864 424h-48l-44 52.992L736 424zM248 459.008l22.016 61.984H225.984z m378.016 4.992h88l36 48-40 52.992h-84v-34.976h80v-36h-80z" p-id="18150" fill="#f4f4f4"></path></svg>