<?xml version="1.0" standalone="no"?><!DOCTYPE svg PUBLIC "-//W3C//DTD SVG 1.1//EN" "http://www.w3.org/Graphics/SVG/1.1/DTD/svg11.dtd"><svg t="1698827816735" class="icon" viewBox="0 0 1024 1024" version="1.1" xmlns="http://www.w3.org/2000/svg" p-id="19485" width="64" height="64" xmlns:xlink="http://www.w3.org/1999/xlink"><path d="M160 192C107.36 192 64 235.36 64 288v448c0 52.64 43.36 96 96 96h704c52.64 0 96-43.36 96-96V288c0-52.64-43.36-96-96-96z m0 64h704c18.112 0 32 13.888 32 32v448c0 18.112-13.888 32-32 32H160c-18.112 0-32-13.888-32-32V288c0-18.112 13.888-32 32-32z m174.016 196.992c-20.032 0-35.008 14.496-35.008 32.992 0 15.52 7.36 23.264 28 31.04 12 4.48 21.984 7.104 21.984 17.984 0 9.12-7.104 16-16.992 16a25.76 25.76 0 0 1-24-15.008l-15.008 12.992c10.144 14.88 23.264 22.016 40 22.016 22.88 0 38.016-15.136 38.016-37.024 0-17.984-7.008-26.88-32-36-13.248-4.864-16.992-7.872-16.992-13.984 0-7.136 6.496-12 16-12 6.624 0 12.224 2.624 17.984 8.992l12-15.008a52.224 52.224 0 0 0-34.016-12.992z m104 0c-33.376 0.128-60.032 26.144-60.032 59.008 0 33.12 26.528 59.008 60.032 59.008 9.472 0 17.984-2.24 27.968-7.008v-26.016c-8.736 8.768-16.96 12-26.976 12-22.144 0-38.016-16.096-38.016-38.976 0-21.632 16.384-38.016 36.992-38.016 10.528 0 18.88 3.008 28.032 12v-25.984c-9.632-4.896-18.528-6.016-28.032-6.016z m92.992 0A59.104 59.104 0 0 0 472 512c0 32.512 26.496 59.008 59.008 59.008A59.104 59.104 0 0 0 589.984 512a59.104 59.104 0 0 0-58.976-59.008zM160 455.04v112.992h32c49.12 0 60.992-38.4 60.992-56 0-33.28-25.248-56.992-60.992-56.992z m103.008 0v112.992h21.984v-112.992z m323.008 0l48 116h12l48.96-116h-24L640 531.008l-30.016-76z m118.976 0v112.992h62.016v-19.008h-40v-30.976h38.976v-19.008H727.04v-24.992h40v-19.008z m77.024 0v112.992h21.984v-44.992h2.016l30.976 44.992H864l-36-48c16.64-3.36 26.016-14.72 26.016-32 0-21.12-14.656-32.992-40-32.992z m21.984 17.984h6.016c13.76 0 21.984 6.016 21.984 16.992 0 11.392-7.872 17.024-22.016 17.024h-5.984z m-622.016 0.992h7.04c29.984 0 40.96 20.256 40.96 38.016 0 8.512-2.368 36.992-41.984 36.992h-6.016z" p-id="19486" fill="#f4f4f4"></path></svg>