<?xml version="1.0" standalone="no"?><!DOCTYPE svg PUBLIC "-//W3C//DTD SVG 1.1//EN" "http://www.w3.org/Graphics/SVG/1.1/DTD/svg11.dtd"><svg t="1698827707813" class="icon" viewBox="0 0 1024 1024" version="1.1" xmlns="http://www.w3.org/2000/svg" p-id="18447" width="64" height="64" xmlns:xlink="http://www.w3.org/1999/xlink"><path d="M160 192C107.36 192 64 235.36 64 288v448c0 52.64 43.36 96 96 96h704c52.64 0 96-43.36 96-96V288c0-52.64-43.36-96-96-96z m0 64h704c18.112 0 32 13.888 32 32v448c0 18.112-13.888 32-32 32H160c-18.112 0-32-13.888-32-32V288c0-18.112 13.888-32 32-32z m320 64c-105.6 0-192 86.4-192 192s86.4 192 192 192h64c106.016 0 192-86.016 192-192 0-106.016-86.016-192-192-192z m0 64c71.136 0 128 56.864 128 128s-56.864 128-128 128-128-56.864-128-128 56.864-128 128-128z m-26.016 52.992C422.912 448 400 477.12 400 512c0 34.88 22.88 64 54.016 75.008z m52.032 0v150.016C537.12 576 560 546.88 560 512c0-34.88-22.88-64-54.016-75.008z" p-id="18448" fill="#f4f4f4"></path></svg>