<?xml version="1.0" standalone="no"?><!DOCTYPE svg PUBLIC "-//W3C//DTD SVG 1.1//EN" "http://www.w3.org/Graphics/SVG/1.1/DTD/svg11.dtd"><svg t="1698827782033" class="icon" viewBox="0 0 1024 1024" version="1.1" xmlns="http://www.w3.org/2000/svg" p-id="19139" width="64" height="64" xmlns:xlink="http://www.w3.org/1999/xlink"><path d="M160 192C107.36 192 64 235.36 64 288v448c0 52.64 43.36 96 96 96h704c52.64 0 96-43.36 96-96V288c0-52.64-43.36-96-96-96z m0 64h704c18.112 0 32 13.888 32 32v448c0 18.112-13.888 32-32 32H160c-18.112 0-32-13.888-32-32V288c0-18.112 13.888-32 32-32z m100.992 96C221.76 352 192 376.864 192 420V672h126.016c30.72 0 65.984-28.64 65.984-66.016V352z m224 0C445.888 352 416 376.992 416 420v250.016h126.016c30.624 0 65.984-28.768 65.984-66.016V352z m224 0C669.888 352 640 376.992 640 420v250.016h124.992c30.496 0 67.008-28.768 67.008-66.016V352z m-216.992 96h92v20c-22.016-5.12-43.52-8-54.016-8-22.976 0-40.96 19.744-40.96 44s17.984 43.008 40.96 43.008c10.528 0 32-1.888 54.016-7.008v19.008h-92c-28.64 0-52.992-24.768-52.992-55.008 0-30.24 24.352-56 52.992-56z m175.008 0h117.984c14.4 0 26.016 12.64 26.016 27.008 0 14.24-9.632 28-24 28 16.256 0 28.992 12.736 28.992 27.008 0 14.368-12.736 28-28.992 28h-120z m-364 0.992h55.008v62.016c0 34.496-44.384 52.992-77.024 52.992-35.52 0-67.232-21.12-73.984-48h24c2.88 16.384 18.752 28 36.992 28 20.128 0 35.008-14.72 35.008-32.992z m408.992 10.016V496h38.016a18.592 18.592 0 0 0 17.984-18.016c0-9.472-8.512-18.976-18.016-18.976z m0 51.008v36.992h39.008c9.6 0 17.984-8.512 17.984-18.016 0-9.6-8.352-18.976-17.984-18.976z" p-id="19140" fill="#f4f4f4"></path></svg>