<?xml version="1.0" standalone="no"?><!DOCTYPE svg PUBLIC "-//W3C//DTD SVG 1.1//EN" "http://www.w3.org/Graphics/SVG/1.1/DTD/svg11.dtd"><svg t="1698827751461" class="icon" viewBox="0 0 1024 1024" version="1.1" xmlns="http://www.w3.org/2000/svg" p-id="18793" width="64" height="64" xmlns:xlink="http://www.w3.org/1999/xlink"><path d="M160 192C107.36 192 64 235.36 64 288v448c0 52.64 43.36 96 96 96h704c52.64 0 96-43.36 96-96V288c0-52.64-43.36-96-96-96z m0 64h704c18.112 0 32 13.888 32 32v448c0 18.112-13.888 32-32 32H160c-18.112 0-32-13.888-32-32V288c0-18.112 13.888-32 32-32z m224 32c-123.36 0-224 100.64-224 224s100.64 224 224 224a221.888 221.888 0 0 0 128-40A222.208 222.208 0 0 0 640 736c123.36 0 224-100.64 224-224s-100.64-224-224-224a222.208 222.208 0 0 0-128 40A221.888 221.888 0 0 0 384 288z m0 64c40.992 0 77.76 15.872 106.016 40.992a189.312 189.312 0 0 0-31.04 55.008h71.04c4.48 10.24 8.736 20.864 10.976 32h-89.984A191.552 191.552 0 0 0 448 512c0 11.008 1.28 21.632 3.008 32h89.984c-2.24 11.136-6.496 21.76-10.976 32h-71.04c7.136 20.128 17.92 38.624 31.04 55.008C461.76 656.128 424.96 672 384 672c-88.736 0-160-71.264-160-160s71.264-160 160-160z m256 0c88.736 0 160 71.264 160 160s-71.264 160-160 160a158.304 158.304 0 0 1-80-22.016A221.44 221.44 0 0 0 608 512a221.44 221.44 0 0 0-48-138.016A158.304 158.304 0 0 1 640 352z" p-id="18794" fill="#f4f4f4"></path></svg>