<?xml version="1.0" standalone="no"?><!DOCTYPE svg PUBLIC "-//W3C//DTD SVG 1.1//EN" "http://www.w3.org/Graphics/SVG/1.1/DTD/svg11.dtd"><svg t="1698827450729" class="icon" viewBox="0 0 1024 1024" version="1.1" xmlns="http://www.w3.org/2000/svg" p-id="17725" width="64" height="64" xmlns:xlink="http://www.w3.org/1999/xlink"><path d="M160 192C107.36 192 64 235.36 64 288v448c0 52.64 43.36 96 96 96h704c52.64 0 96-43.36 96-96V288c0-52.64-43.36-96-96-96z m0 64h704c18.112 0 32 13.888 32 32v448c0 18.112-13.888 32-32 32H160c-18.112 0-32-13.888-32-32V288c0-18.112 13.888-32 32-32z m460.992 140c-61.632 0-93.984 30.4-93.984 68.992 0 69.76 81.984 60.16 81.984 96 0 6.144-5.12 20-38.976 20-33.92 0-56-12-56-12l-10.016 46.016s20.992 12.992 63.008 12.992c41.984 0 100.992-32.256 100.992-79.008 0-56.256-82.016-60-82.016-84.992 0-12.736 10.88-23.008 40-23.008 19.008 0 40 15.008 40 15.008l10.016-48.992s-27.872-11.008-55.008-11.008z m-262.976 4L304 558.016s-2.752-13.632-4-22.016c-30.496-68.48-80-94.016-80-94.016l47.008 179.008h64l89.984-220.992z m85.984 0l-35.008 220.992h59.008l35.008-220.992z m318.016 0l-96 220.992h57.984l12-30.976h74.016l5.984 30.976h52.992L824 400z m-607.04 0.992s115.136 35.264 142.016 122.016l-20-100s-8.736-22.016-32-22.016zM784 464l16.992 83.008h-48z" p-id="17726" fill="#f4f4f4"></path></svg>