<?xml version="1.0" encoding="utf-8"?>
<!-- Generator: Adobe Illustrator 27.7.0, SVG Export Plug-In . SVG Version: 6.00 Build 0)  -->
<svg version="1.1" id="Layer_1" xmlns="http://www.w3.org/2000/svg" xmlns:xlink="http://www.w3.org/1999/xlink" x="0px" y="0px"
	 viewBox="0 0 999.5 290" style="enable-background:new 0 0 999.5 290;" xml:space="preserve">
<style type="text/css">
	.st0{fill:#F4F4F4;}
</style>
<path class="st0" d="M191.2,161.1L163.3,145l27.9-16.1l26.3-15.2V0H0v290h217.5V176.3L191.2,161.1z M163.2,235.7H54.4V54.4h108.8
	L163.2,235.7L163.2,235.7L163.2,235.7z"/>
<g>
	<path class="st0" d="M383.2,113.7c9.2,5.5,16.3,13.2,21.4,23.2c5.1,9.9,7.6,21.3,7.6,34s-2.5,24.1-7.6,34s-12.2,17.7-21.4,23.2
		c-9.2,5.5-19.6,8.3-31.3,8.3c-17.1,0-31.1-5.9-41.8-17.6l-2.5,15H273V55.5h40v64.4c10.5-9.7,23.5-14.5,39-14.5
		C363.5,105.4,374,108.1,383.2,113.7L383.2,113.7z M364.1,193.8c5.6-5.9,8.4-13.5,8.4-23s-2.8-17.2-8.4-23s-12.8-8.8-21.6-8.8
		s-16,3-21.5,8.9s-8.3,13.6-8.3,22.9s2.8,17,8.3,22.9s12.7,8.9,21.5,8.9C351.2,202.6,358.5,199.7,364.1,193.8L364.1,193.8z"/>
	<path class="st0" d="M517.6,107.9h43.3l-78.4,180.2H440l24.4-56.3l-48.9-124h43l14.5,39.7l13.7,41l14.8-41L517.6,107.9z"/>
	<path class="st0" d="M691.3,120.4c9.2,10.2,13.9,24.3,13.9,42.3v71h-40V165c0-8.1-2-14.5-6.1-19.1s-9.7-6.9-16.8-6.9
		c-7.8,0-14.1,2.6-18.8,7.9c-4.8,5.3-7.1,12.1-7.1,20.6v66.2h-40V107.9H611l2.5,14.8c4.9-5.6,10.8-9.9,17.7-13s14.5-4.6,22.8-4.6
		C669.6,105.1,682.1,110.2,691.3,120.4L691.3,120.4z"/>
	<path class="st0" d="M865.6,107.9v125.8H831l-2.5-15c-10.7,11.7-24.6,17.6-41.8,17.6c-11.7,0-22.1-2.8-31.2-8.3
		c-9.1-5.5-16.2-13.2-21.3-23.2s-7.6-21.3-7.6-34s2.5-24.1,7.6-34s12.2-17.6,21.3-23.2c9.1-5.5,19.5-8.3,31.2-8.3
		c8.5,0,16.3,1.5,23.4,4.5c7.1,3,13.2,7.3,18.3,12.9l2.5-14.8L865.6,107.9L865.6,107.9z M817.7,193.8c5.6-5.9,8.4-13.5,8.4-23
		s-2.8-17.2-8.4-23s-12.8-8.8-21.6-8.8s-16,3-21.5,8.9s-8.3,13.6-8.3,22.9s2.8,17,8.3,22.9s12.7,8.9,21.5,8.9
		S812.1,199.7,817.7,193.8L817.7,193.8z"/>
	<path class="st0" d="M984.5,108.3c5.8,2.1,10.8,5.2,15,9.3l-16.8,29.3c-3.6-2.2-6.9-3.8-9.9-4.8c-3.1-1-6.3-1.5-9.7-1.5
		c-8.5,0-15.2,2.7-20.1,8.1c-4.9,5.4-7.4,13.4-7.4,23.9v61.1h-40V107.9h34.9l3.1,15.8c8.1-12.4,19.3-18.6,33.6-18.6
		C972.9,105.1,978.7,106.2,984.5,108.3L984.5,108.3z"/>
</g>
</svg>
