<?xml version="1.0" encoding="UTF-8"?>
<svg id="Layer_1" data-name="Layer 1" xmlns="http://www.w3.org/2000/svg"  width="88px" height="50px" viewBox="0 0 999.5 290">
  <defs>
    <style>
      .cls-1 {
        fill: #767676;
      }

      .cls-2 {
        fill: #385ba9;
      }
    </style>
  </defs>
  <path class="cls-2" d="m191.2,161.1l-27.9-16.1,27.9-16.1,26.3-15.2V0H0v290h217.5v-113.7l-26.3-15.2Zm-28,74.6H54.4V54.4h108.8v181.3h0Z"/>
  <g>
    <path class="cls-1" d="m383.2,113.7c9.2,5.5,16.3,13.2,21.4,23.2,5.1,9.9,7.6,21.3,7.6,34s-2.5,24.1-7.6,34-12.2,17.7-21.4,23.2c-9.2,5.5-19.6,8.3-31.3,8.3-17.1,0-31.1-5.9-41.8-17.6l-2.5,15h-34.6V55.5h40v64.4c10.5-9.7,23.5-14.5,39-14.5,11.5,0,22,2.7,31.2,8.3Zm-19.1,80.1c5.6-5.9,8.4-13.5,8.4-23s-2.8-17.2-8.4-23-12.8-8.8-21.6-8.8-16,3-21.5,8.9-8.3,13.6-8.3,22.9,2.8,17,8.3,22.9,12.7,8.9,21.5,8.9c8.7,0,16-2.9,21.6-8.8Z"/>
    <path class="cls-1" d="m517.6,107.9h43.3l-78.4,180.2h-42.5l24.4-56.3-48.9-124h43l14.5,39.7,13.7,41,14.8-41,16.1-39.6Z"/>
    <path class="cls-1" d="m691.3,120.4c9.2,10.2,13.9,24.3,13.9,42.3v71h-40v-68.7c0-8.1-2-14.5-6.1-19.1s-9.7-6.9-16.8-6.9c-7.8,0-14.1,2.6-18.8,7.9-4.8,5.3-7.1,12.1-7.1,20.6v66.2h-40v-125.8h34.6l2.5,14.8c4.9-5.6,10.8-9.9,17.7-13s14.5-4.6,22.8-4.6c15.6,0,28.1,5.1,37.3,15.3Z"/>
    <path class="cls-1" d="m865.6,107.9v125.8h-34.6l-2.5-15c-10.7,11.7-24.6,17.6-41.8,17.6-11.7,0-22.1-2.8-31.2-8.3-9.1-5.5-16.2-13.2-21.3-23.2s-7.6-21.3-7.6-34,2.5-24.1,7.6-34,12.2-17.6,21.3-23.2c9.1-5.5,19.5-8.3,31.2-8.3,8.5,0,16.3,1.5,23.4,4.5,7.1,3,13.2,7.3,18.3,12.9l2.5-14.8h34.7Zm-47.9,85.9c5.6-5.9,8.4-13.5,8.4-23s-2.8-17.2-8.4-23-12.8-8.8-21.6-8.8-16,3-21.5,8.9-8.3,13.6-8.3,22.9,2.8,17,8.3,22.9,12.7,8.9,21.5,8.9c8.8,0,16-2.9,21.6-8.8Z"/>
    <path class="cls-1" d="m984.5,108.3c5.8,2.1,10.8,5.2,15,9.3l-16.8,29.3c-3.6-2.2-6.9-3.8-9.9-4.8-3.1-1-6.3-1.5-9.7-1.5-8.5,0-15.2,2.7-20.1,8.1-4.9,5.4-7.4,13.4-7.4,23.9v61.1h-40v-125.8h34.9l3.1,15.8c8.1-12.4,19.3-18.6,33.6-18.6,5.7,0,11.5,1.1,17.3,3.2Z"/>
  </g>
</svg>
