<?xml version="1.0" encoding="UTF-8"?>
<svg id="Layer_1" data-name="Layer 1" xmlns="http://www.w3.org/2000/svg" viewBox="0 0 499.7 159.98">
  <defs>
    <style>
      .cls-1 {
        fill: #f4f4f4;
      }
    </style>
  </defs>
  <path class="cls-1" d="m75.8,40.03c6.33,3.78,11.21,9.08,14.72,15.96,3.51,6.81,5.23,14.65,5.23,23.39s-1.72,16.58-5.23,23.39-8.39,12.17-14.72,15.96c-6.33,3.78-13.48,5.71-21.53,5.71-11.76,0-21.39-4.06-28.75-12.11l-1.72,10.32H0V0h27.51v44.29c7.22-6.67,16.16-9.97,26.82-9.97,7.91,0,15.13,1.86,21.46,5.71h.01Zm-13.14,55.09c3.85-4.06,5.78-9.29,5.78-15.82s-1.93-11.83-5.78-15.82-8.8-6.05-14.86-6.05-11,2.06-14.79,6.12c-3.78,4.06-5.71,9.35-5.71,15.75s1.93,11.69,5.71,15.75,8.74,6.12,14.79,6.12,11-1.99,14.86-6.05Z"/>
  <path class="cls-1" d="m168.24,36.04h29.78l-53.92,123.94h-29.23l16.78-38.72-33.63-85.29h29.58l9.97,27.31,9.42,28.2,10.18-28.2,11.07-27.24h0Z"/>
  <path class="cls-1" d="m287.71,44.64c6.33,7.02,9.56,16.71,9.56,29.09v48.83h-27.51v-47.25c0-5.57-1.38-9.97-4.2-13.14s-6.67-4.75-11.56-4.75c-5.36,0-9.7,1.79-12.93,5.43-3.3,3.65-4.88,8.32-4.88,14.17v45.53h-27.51V36.04h23.8l1.72,10.18c3.37-3.85,7.43-6.81,12.17-8.94s9.97-3.16,15.68-3.16c10.73,0,19.33,3.51,25.66,10.52Z"/>
  <path class="cls-1" d="m407.6,36.04v86.53h-23.8l-1.72-10.32c-7.36,8.05-16.92,12.11-28.75,12.11-8.05,0-15.2-1.93-21.46-5.71-6.26-3.78-11.14-9.08-14.65-15.96-3.51-6.88-5.23-14.65-5.23-23.39s1.72-16.58,5.23-23.39c3.51-6.81,8.39-12.11,14.65-15.96,6.26-3.78,13.41-5.71,21.46-5.71,5.85,0,11.21,1.03,16.09,3.1,4.88,2.06,9.08,5.02,12.59,8.87l1.72-10.18h23.87Zm-32.95,59.08c3.85-4.06,5.78-9.29,5.78-15.82s-1.93-11.83-5.78-15.82-8.8-6.05-14.86-6.05-11,2.06-14.79,6.12c-3.78,4.06-5.71,9.35-5.71,15.75s1.93,11.69,5.71,15.75,8.74,6.12,14.79,6.12,11-1.99,14.86-6.05Z"/>
  <path class="cls-1" d="m489.38,36.32c3.99,1.44,7.43,3.58,10.32,6.4l-11.56,20.15c-2.48-1.51-4.75-2.61-6.81-3.3-2.13-.69-4.33-1.03-6.67-1.03-5.85,0-10.45,1.86-13.82,5.57-3.37,3.71-5.09,9.22-5.09,16.44v42.03h-27.51V36.04h24l2.13,10.87c5.57-8.53,13.27-12.79,23.11-12.79,3.92,0,7.91.76,11.9,2.2h0Z"/>
</svg>